<svg id="visual" viewBox="0 0 540 960" width="540" height="960" xmlns="http://www.w3.org/2000/svg" xmlns:xlink="http://www.w3.org/1999/xlink" version="1.1"><rect width="540" height="960" fill="#0d0d29"></rect><g><g transform="translate(3 550)"><path d="M7.2 -2.3C8.2 0.8 7.1 4.5 4.4 6.6C1.7 8.7 -2.6 9.1 -5.3 7.1C-8 5.2 -9.1 0.9 -8 -2.3C-6.9 -5.6 -3.4 -7.9 -0.2 -7.8C3.1 -7.8 6.2 -5.4 7.2 -2.3Z" fill="#171752"></path></g><g transform="translate(241 606)"><path d="M6.6 -2.4C7.4 0.3 6 3.4 3.6 5.2C1.2 6.9 -2.2 7.4 -4.3 5.9C-6.4 4.4 -7 1 -6.1 -2C-5.1 -4.9 -2.6 -7.3 0.2 -7.4C2.9 -7.5 5.8 -5.1 6.6 -2.4Z" fill="#171752"></path></g><g transform="translate(283 470)"><path d="M6.2 -2.3C7 0.6 6 3.7 3.9 5.3C1.7 6.8 -1.6 6.8 -3.8 5.2C-6.1 3.6 -7.3 0.4 -6.5 -2.5C-5.7 -5.3 -2.8 -7.9 -0.1 -7.8C2.7 -7.8 5.4 -5.2 6.2 -2.3Z" fill="#171752"></path></g><g transform="translate(124 612)"><path d="M4.9 -1.5C5.7 0.8 5.1 3.5 3.4 4.9C1.6 6.2 -1.4 6.2 -3.2 4.8C-5.1 3.4 -5.7 0.6 -5 -1.6C-4.2 -3.8 -2.1 -5.6 0 -5.5C2.1 -5.5 4.1 -3.8 4.9 -1.5Z" fill="#171752"></path></g><g transform="translate(456 813)"><path d="M6.9 -2.5C7.8 0.3 6.4 3.6 4.1 5.2C1.9 6.7 -1.3 6.4 -3.6 4.8C-5.8 3.2 -7.1 0.2 -6.4 -2.5C-5.6 -5.1 -2.8 -7.6 0.1 -7.6C3.1 -7.6 6.1 -5.3 6.9 -2.5Z" fill="#171752"></path></g><g transform="translate(388 6)"><path d="M6.3 -2.3C7.1 0.6 6.1 3.8 3.9 5.5C1.6 7.2 -1.9 7.3 -4.2 5.7C-6.6 4 -7.7 0.6 -6.8 -2.4C-5.9 -5.4 -2.9 -8 -0.1 -7.9C2.7 -7.9 5.4 -5.3 6.3 -2.3Z" fill="#171752"></path></g><g transform="translate(189 554)"><path d="M5.5 -2C6.2 0.3 5.1 2.9 3.2 4.2C1.3 5.6 -1.5 5.7 -3.3 4.4C-5.2 3 -6.2 0.4 -5.5 -1.9C-4.8 -4.2 -2.4 -6.1 0 -6.1C2.4 -6.1 4.8 -4.2 5.5 -2Z" fill="#171752"></path></g><g transform="translate(494 388)"><path d="M6.3 -2.2C7.2 0.5 6.1 3.7 3.8 5.5C1.5 7.2 -2.1 7.5 -4.4 5.9C-6.8 4.3 -7.9 0.7 -6.9 -2.2C-6 -5 -3 -7.1 -0.1 -7.1C2.7 -7 5.5 -4.8 6.3 -2.2Z" fill="#171752"></path></g><g transform="translate(416 244)"><path d="M6.4 -2.2C7.2 0.7 6.3 4 4 5.6C1.8 7.3 -1.7 7.2 -4 5.5C-6.4 3.8 -7.6 0.5 -6.7 -2.4C-5.8 -5.2 -2.9 -7.6 -0.1 -7.6C2.7 -7.5 5.5 -5.1 6.4 -2.2Z" fill="#171752"></path></g><g transform="translate(200 227)"><path d="M6.8 -2.5C7.6 0.3 6.2 3.5 3.9 5.2C1.6 6.8 -1.7 6.8 -4.1 5.2C-6.6 3.5 -8.2 0.2 -7.4 -2.7C-6.6 -5.6 -3.3 -7.9 -0.2 -7.9C3 -7.8 5.9 -5.4 6.8 -2.5Z" fill="#171752"></path></g><g transform="translate(316 695)"><path d="M5.3 -1.7C6.1 0.6 5.3 3.5 3.4 5C1.4 6.5 -1.8 6.6 -3.7 5.2C-5.7 3.7 -6.5 0.7 -5.7 -1.7C-4.8 -4.1 -2.4 -5.8 -0.1 -5.8C2.3 -5.8 4.6 -4 5.3 -1.7Z" fill="#171752"></path></g><g transform="translate(435 734)"><path d="M4.7 -1.6C5.4 0.5 4.7 3 3 4.3C1.4 5.5 -1.3 5.5 -3 4.2C-4.7 2.9 -5.5 0.4 -4.9 -1.7C-4.2 -3.9 -2.1 -5.7 0 -5.7C2 -5.7 4 -3.8 4.7 -1.6Z" fill="#171752"></path></g><g transform="translate(348 439)"><path d="M5.6 -2.2C6.3 0.2 5.1 2.9 3.2 4.2C1.3 5.5 -1.4 5.6 -3.2 4.3C-5 3 -5.9 0.4 -5.2 -2C-4.5 -4.5 -2.3 -6.7 0.1 -6.7C2.5 -6.8 5 -4.6 5.6 -2.2Z" fill="#171752"></path></g><g transform="translate(260 294)"><path d="M5.1 -1.9C5.7 0.2 4.7 2.6 2.9 3.8C1.1 5.1 -1.3 5.2 -3.1 3.9C-4.9 2.7 -5.9 0.2 -5.3 -1.9C-4.6 -4.1 -2.3 -5.9 0 -5.9C2.3 -5.9 4.5 -4 5.1 -1.9Z" fill="#171752"></path></g><g transform="translate(87 90)"><path d="M6.7 -2.1C7.6 0.5 6.4 3.9 4.2 5.4C2 7 -1.4 6.7 -3.7 5C-6 3.3 -7.4 0.2 -6.6 -2.2C-5.8 -4.6 -2.9 -6.4 0 -6.4C2.9 -6.4 5.9 -4.6 6.7 -2.1Z" fill="#171752"></path></g><g transform="translate(145 804)"><path d="M6.7 -1.9C7.7 0.9 6.8 4.6 4.6 6.3C2.3 7.9 -1.5 7.6 -4.1 5.7C-6.7 3.8 -8.2 0.3 -7.3 -2.3C-6.4 -5 -3.2 -6.8 -0.2 -6.8C2.8 -6.7 5.7 -4.7 6.7 -1.9Z" fill="#171752"></path></g></g></svg>